<?xml version="1.0" encoding="UTF-8" standalone="no"?>
<!-- Created with sK1/UniConvertor (http://sk1project.org/) -->

<svg
   width="795.95959pt"
   height="163.65248pt"
   viewBox="0 0 795.95959 163.65248"
   fill-rule="evenodd"
   id="svg2985"
   version="1.1"
   xmlns="http://www.w3.org/2000/svg"
   xmlns:svg="http://www.w3.org/2000/svg"
   xmlns:rdf="http://www.w3.org/1999/02/22-rdf-syntax-ns#"
   xmlns:cc="http://creativecommons.org/ns#"
   xmlns:dc="http://purl.org/dc/elements/1.1/">
  <metadata
     id="metadata3017">
    <rdf:RDF>
      <cc:Work
         rdf:about="">
        <dc:format>image/svg+xml</dc:format>
        <dc:type
           rdf:resource="http://purl.org/dc/dcmitype/StillImage" />
      </cc:Work>
    </rdf:RDF>
  </metadata>
  <defs
     id="defs3015" />
  <g
     id="g3233">
    <path
       style="fill:#999999;stroke:none"
       d="m 204.2366,59.30773 c 0,8.911 -5.689,13.367 -17.066,13.367 -0.692,0 -1.817,-0.043 -3.374,-0.13 v 15.379 h -4.802 v -42.372 h 9.214 c 10.686,0 16.028,4.585 16.028,13.756 z m -5.062,-0.584 c 0,-6.359 -4.044,-9.538 -12.134,-9.538 -0.605,0 -1.687,0.043 -3.244,0.129 v 19.532 c 1.385,0.087 2.358,0.13 2.92,0.13 4.326,0 7.484,-0.811 9.474,-2.433 1.989,-1.623 2.984,-4.229 2.984,-7.82 z m 34.521,13.432 c 0,5.408 -1.017,9.539 -3.05,12.394 -2.033,2.856 -4.909,4.283 -8.63,4.283 -3.677,0 -6.543,-1.471 -8.598,-4.413 -2.055,-2.942 -3.082,-7.094 -3.082,-12.459 0,-5.147 1.049,-9.181 3.147,-12.101 2.099,-2.92 4.942,-4.38 8.533,-4.38 3.677,0 6.543,1.46 8.598,4.38 2.054,2.92 3.082,7.018 3.082,12.296 z m -4.737,0 c 0,-4.153 -0.627,-7.375 -1.881,-9.668 -1.255,-2.293 -2.943,-3.439 -5.062,-3.439 -2.119,0 -3.807,1.103 -5.061,3.309 -1.255,2.206 -1.882,5.277 -1.882,9.214 0,9.128 2.314,13.692 6.943,13.692 2.163,0 3.861,-1.136 5.094,-3.407 1.233,-2.271 1.849,-5.504 1.849,-9.701 z m 16.417,15.768 h -4.478 v -44.189 h 4.478 z m 28.357,-8.76 c 0,2.898 -0.973,5.224 -2.92,6.976 -1.947,1.752 -4.586,2.628 -7.917,2.628 -4.195,0 -7.656,-1.233 -10.382,-3.698 v -4.543 h 2.92 c 1.471,2.898 3.958,4.348 7.462,4.348 1.904,0 3.429,-0.487 4.575,-1.461 1.147,-0.973 1.72,-2.238 1.72,-3.795 0,-1.99 -0.93,-3.44 -2.791,-4.348 -2.336,-0.779 -4.693,-1.558 -7.072,-2.336 -1.861,-0.649 -3.342,-1.719 -4.445,-3.212 -1.103,-1.493 -1.655,-3.168 -1.655,-5.029 0,-2.638 0.963,-4.824 2.888,-6.554 1.924,-1.73 4.401,-2.595 7.43,-2.595 3.287,0 6.315,1.189 9.084,3.569 v 4.542 h -2.985 c -1.341,-2.941 -3.482,-4.413 -6.424,-4.413 -1.644,0 -3.029,0.487 -4.153,1.461 -1.125,0.973 -1.687,2.195 -1.687,3.665 0,1.385 0.605,2.531 1.817,3.44 1.038,0.821 2.812,1.6 5.321,2.336 3.244,0.951 5.591,2.119 7.04,3.504 1.449,1.384 2.174,3.223 2.174,5.515 z m 28.097,-22.776 -11.032,14.016 10.253,17.52 h -4.931 l -5.711,-9.798 c -0.995,-1.687 -1.644,-3.461 -1.947,-5.321 l -0.518,-0.194 -2.985,4.606 v 10.707 h -4.413 v -44.189 h 4.413 v 19.466 c 0,2.164 -0.151,5.213 -0.455,9.15 l 0.909,0.26 11.225,-16.223 z m 9.603,-7.657 h -4.931 v -4.996 h 4.931 z m -0.259,39.193 h -4.478 v -31.536 h 4.478 z m 30.628,-14.275 h -18.559 v 0.778 c 0,3.374 0.725,6.003 2.174,7.885 1.449,1.881 3.385,2.822 5.808,2.822 3.288,0 5.71,-1.232 7.267,-3.699 h 3.179 v 3.504 c -3.027,2.596 -6.596,3.894 -10.706,3.894 -8.349,0 -12.524,-5.515 -12.524,-16.547 0,-5.321 1.039,-9.452 3.115,-12.394 2.077,-2.942 4.932,-4.412 8.565,-4.412 3.721,0 6.598,1.46 8.63,4.38 2.034,2.92 3.051,7.105 3.051,12.556 z m -4.737,-3.569 c -0.346,-7.354 -2.661,-11.031 -6.944,-11.031 -4.368,0 -6.661,3.677 -6.878,11.031 z m 49.444,6.943 c 0,3.418 -1.318,6.25 -3.958,8.5 -2.638,2.25 -6.077,3.374 -10.317,3.374 -3.547,0 -7.181,-0.973 -10.901,-2.92 v -6.164 h 3.569 c 1.817,3.548 4.521,5.321 8.111,5.321 2.509,0 4.542,-0.725 6.1,-2.174 1.557,-1.449 2.336,-3.32 2.336,-5.613 0,-2.379 -0.93,-4.282 -2.791,-5.71 -0.692,-0.562 -3.222,-1.903 -7.592,-4.023 -3.374,-1.643 -5.753,-3.331 -7.137,-5.061 -1.558,-1.86 -2.336,-4.196 -2.336,-7.008 0,-3.115 1.113,-5.721 3.341,-7.819 2.228,-2.099 5.051,-3.147 8.468,-3.147 4.37,0 8.111,1.189 11.226,3.568 v 5.322 h -3.439 c -1.86,-3.461 -4.305,-5.192 -7.332,-5.192 -2.12,0 -3.872,0.692 -5.256,2.077 -1.385,1.384 -2.077,3.071 -2.077,5.061 0,3.201 2.249,5.818 6.749,7.852 3.158,1.427 4.996,2.27 5.515,2.53 1.774,0.908 3.136,1.838 4.088,2.79 2.422,2.423 3.633,5.235 3.633,8.436 z m 18.949,10.901 h -4.932 c -2.769,0 -4.607,-0.67 -5.516,-2.011 -0.778,-1.125 -1.168,-3.245 -1.168,-6.36 v -19.596 h -3.828 v -3.569 h 3.828 v -9.927 h 4.478 v 9.927 h 7.138 v 3.569 h -7.138 v 19.596 c 0,2.163 0.195,3.472 0.584,3.927 0.389,0.454 1.557,0.681 3.504,0.681 h 3.05 z m 27.319,-15.768 c 0,5.408 -1.017,9.539 -3.051,12.394 -2.032,2.856 -4.909,4.283 -8.63,4.283 -3.677,0 -6.543,-1.471 -8.597,-4.413 -2.056,-2.942 -3.083,-7.094 -3.083,-12.459 0,-5.147 1.049,-9.181 3.147,-12.101 2.099,-2.92 4.942,-4.38 8.533,-4.38 3.678,0 6.543,1.46 8.598,4.38 2.055,2.92 3.083,7.018 3.083,12.296 z m -4.738,0 c 0,-4.153 -0.627,-7.375 -1.881,-9.668 -1.255,-2.293 -2.942,-3.439 -5.062,-3.439 -2.119,0 -3.807,1.103 -5.061,3.309 -1.255,2.206 -1.882,5.277 -1.882,9.214 0,9.128 2.314,13.692 6.943,13.692 2.163,0 3.862,-1.136 5.094,-3.407 1.233,-2.271 1.849,-5.504 1.849,-9.701 z m 46.591,-15.768 -8.825,31.536 h -4.348 l -5.515,-24.268 h -0.844 l -5.385,24.268 h -4.283 l -8.76,-31.536 h 5.061 l 5.321,26.799 h 0.843 l 5.256,-26.799 h 4.672 l 5.451,26.799 h 0.779 l 5.386,-26.799 z m 26.475,31.536 h -4.542 v -2.66 l -0.584,-0.065 c -2.422,2.423 -5.062,3.634 -7.917,3.634 -2.681,0 -4.953,-0.876 -6.814,-2.628 -1.859,-1.753 -2.789,-3.882 -2.789,-6.392 0,-6.748 5.97,-10.62 17.909,-11.615 0.043,-0.475 0.065,-1.147 0.065,-2.011 0,-4.802 -2.055,-7.203 -6.164,-7.203 -3.202,0 -5.408,1.514 -6.619,4.542 h -3.245 v -4.931 c 3.245,-2.077 6.597,-3.115 10.058,-3.115 4.11,0 7.138,1.341 9.084,4.023 1.039,1.428 1.558,4.305 1.558,8.63 z m -4.607,-6.099 v -10.837 c -4.327,0.346 -7.636,1.255 -9.928,2.725 -2.293,1.472 -3.439,3.331 -3.439,5.581 0,1.644 0.573,2.995 1.719,4.056 1.147,1.059 2.693,1.589 4.64,1.589 2.552,0 4.888,-1.037 7.008,-3.114 z m 28.097,-20.44 c -4.153,0.043 -7.744,1.535 -10.771,4.477 v 22.062 h -4.478 v -31.536 h 4.478 v 2.466 c 0,1.298 -0.173,2.423 -0.52,3.374 l 0.779,0.455 c 0.952,-1.99 2.336,-3.547 4.153,-4.672 1.817,-1.125 3.828,-1.688 6.034,-1.688 h 0.325 z m 23.36,26.539 h -19.338 v -3.763 l 14.016,-24.009 h -13.95 v -3.764 h 18.493 v 4.218 l -14.016,23.555 h 14.795 z m 24.917,-31.536 -9.149,30.368 c -1.255,4.11 -2.682,6.965 -4.282,8.565 -1.775,1.731 -4.327,2.597 -7.658,2.597 -0.129,0 -0.368,0 -0.713,0 -0.303,-0.044 -0.541,-0.066 -0.714,-0.066 v -4.022 c 0.173,0 0.389,0.021 0.648,0.064 0.303,0 0.52,0 0.65,0 2.206,0 3.893,-0.584 5.061,-1.752 1.038,-1.082 1.925,-3.05 2.66,-5.904 l -8.825,-29.85 h 4.932 l 5.97,25.762 h 0.648 l 5.711,-25.762 z m 25.177,22.776 c 0,2.898 -0.973,5.224 -2.92,6.976 -1.947,1.752 -4.586,2.628 -7.917,2.628 -4.195,0 -7.656,-1.233 -10.382,-3.698 v -4.543 h 2.92 c 1.471,2.898 3.958,4.348 7.462,4.348 1.904,0 3.429,-0.487 4.575,-1.461 1.146,-0.973 1.719,-2.238 1.719,-3.795 0,-1.99 -0.929,-3.44 -2.79,-4.348 -2.336,-0.779 -4.693,-1.558 -7.072,-2.336 -1.861,-0.649 -3.342,-1.719 -4.445,-3.212 -1.104,-1.493 -1.655,-3.168 -1.655,-5.029 0,-2.638 0.962,-4.824 2.887,-6.554 1.925,-1.73 4.402,-2.595 7.43,-2.595 3.288,0 6.316,1.189 9.085,3.569 v 4.542 h -2.985 c -1.341,-2.941 -3.482,-4.413 -6.424,-4.413 -1.644,0 -3.029,0.487 -4.154,1.461 -1.124,0.973 -1.686,2.195 -1.686,3.665 0,1.385 0.605,2.531 1.817,3.44 1.037,0.821 2.812,1.6 5.32,2.336 3.245,0.951 5.592,2.119 7.041,3.504 1.449,1.384 2.174,3.223 2.174,5.515 z m 23.814,8.76 h -19.337 v -3.763 l 14.016,-24.009 h -13.951 v -3.764 h 18.493 v 4.218 l -14.016,23.555 h 14.795 z m 27.124,-14.275 h -18.559 v 0.778 c 0,3.374 0.725,6.003 2.174,7.885 1.449,1.881 3.385,2.822 5.808,2.822 3.288,0 5.71,-1.232 7.267,-3.699 h 3.179 v 3.504 c -3.027,2.596 -6.596,3.894 -10.706,3.894 -8.349,0 -12.524,-5.515 -12.524,-16.547 0,-5.321 1.039,-9.452 3.115,-12.394 2.077,-2.942 4.932,-4.412 8.565,-4.412 3.721,0 6.598,1.46 8.63,4.38 2.034,2.92 3.051,7.105 3.051,12.556 z m -4.737,-3.569 c -0.346,-7.354 -2.661,-11.031 -6.944,-11.031 -4.368,0 -6.661,3.677 -6.878,11.031 z m 32.574,17.844 h -4.542 v -19.726 c 0,-3.158 -0.325,-5.386 -0.973,-6.683 -0.736,-1.515 -2.141,-2.272 -4.218,-2.272 -2.25,0 -4.369,1.147 -6.36,3.44 v 25.241 h -4.542 v -31.536 h 4.542 v 2.661 l 0.65,0.194 c 1.686,-2.422 3.979,-3.633 6.878,-3.633 5.71,0 8.565,3.676 8.565,11.031 z m 12.913,-39.193 h -4.931 v -4.996 h 4.931 z m -0.259,39.193 h -4.478 v -31.536 h 4.478 z m 30.628,-14.275 h -18.559 v 0.778 c 0,3.374 0.724,6.003 2.174,7.885 1.449,1.881 3.385,2.822 5.808,2.822 3.287,0 5.71,-1.232 7.267,-3.699 h 3.179 v 3.504 c -3.027,2.596 -6.597,3.894 -10.706,3.894 -8.35,0 -12.524,-5.515 -12.524,-16.547 0,-5.321 1.038,-9.452 3.115,-12.394 2.077,-2.942 4.931,-4.412 8.565,-4.412 3.721,0 6.598,1.46 8.63,4.38 2.034,2.92 3.051,7.105 3.051,12.556 z m -4.737,-3.569 c -0.346,-7.354 -2.661,-11.031 -6.944,-11.031 -4.369,0 -6.661,3.677 -6.878,11.031 z"
       id="path2993" />
    <path
       style="fill:#c20622;fill-opacity:1;stroke:none"
       d="m 207.8706,123.47073 c 0,14.88 -5.083,22.321 -15.249,22.321 -10.253,0 -15.379,-7.397 -15.379,-22.191 0,-14.666 5.126,-21.998 15.379,-21.998 10.166,0 15.249,7.289 15.249,21.868 z m -5.062,1.362 c 0,-6.662 -0.811,-11.571 -2.433,-14.73 -1.622,-3.158 -4.228,-4.737 -7.819,-4.737 -6.878,0 -10.318,6.1 -10.318,18.299 0,12.243 3.44,18.364 10.318,18.364 6.835,0 10.252,-5.732 10.252,-17.196 z m 33.289,4.218 c 0,5.191 -0.888,9.279 -2.661,12.263 -1.774,2.986 -4.131,4.478 -7.073,4.478 -2.768,0 -5.061,-1.254 -6.878,-3.763 l -0.649,0.13 v 2.725 h -4.478 v -44.19 h 4.478 v 15.444 l 0.649,0.194 c 1.86,-2.552 4.153,-3.827 6.878,-3.827 2.899,0 5.245,1.481 7.04,4.444 1.795,2.964 2.694,6.997 2.694,12.102 z m -4.673,0.065 c 0,-8.479 -2.228,-12.718 -6.683,-12.718 -1.991,0 -3.959,1.124 -5.905,3.374 v 18.753 c 1.946,2.292 3.914,3.439 5.905,3.439 4.455,0 6.683,-4.283 6.683,-12.848 z m 27.708,-10.771 c -4.153,0.043 -7.744,1.534 -10.771,4.477 v 22.062 h -4.478 v -31.536 h 4.478 v 2.466 c 0,1.297 -0.173,2.422 -0.52,3.374 l 0.779,0.454 c 0.952,-1.99 2.336,-3.547 4.153,-4.672 1.817,-1.124 3.828,-1.687 6.034,-1.687 h 0.325 z m 29.395,10.771 c 0,5.408 -1.017,9.539 -3.051,12.393 -2.032,2.856 -4.909,4.283 -8.63,4.283 -3.677,0 -6.543,-1.47 -8.597,-4.412 -2.056,-2.942 -3.083,-7.095 -3.083,-12.459 0,-5.148 1.049,-9.181 3.147,-12.101 2.099,-2.92 4.942,-4.381 8.533,-4.381 3.678,0 6.543,1.461 8.598,4.381 2.055,2.92 3.083,7.018 3.083,12.296 z m -4.737,0 c 0,-4.153 -0.628,-7.376 -1.882,-9.669 -1.255,-2.293 -2.942,-3.438 -5.062,-3.438 -2.119,0 -3.807,1.102 -5.061,3.309 -1.255,2.206 -1.882,5.277 -1.882,9.214 0,9.128 2.314,13.691 6.943,13.691 2.163,0 3.862,-1.136 5.094,-3.406 1.233,-2.271 1.85,-5.505 1.85,-9.701 z m 29.199,-26.67 c -3.633,1.904 -6.813,4.326 -9.538,7.268 h -3.31 v -1.103 c 2.639,-2.207 4.845,-4.845 6.619,-7.917 h 6.229 z m 3.375,42.438 h -4.543 v -19.726 c 0,-3.159 -0.324,-5.386 -0.973,-6.684 -0.735,-1.514 -2.141,-2.271 -4.217,-2.271 -2.25,0 -4.37,1.146 -6.36,3.439 v 25.242 h -4.542 v -31.536 h 4.542 v 2.661 l 0.649,0.194 c 1.687,-2.423 3.98,-3.634 6.879,-3.634 5.71,0 8.565,3.677 8.565,11.032 z m 26.345,-3.05 c -2.466,2.639 -5.299,3.958 -8.501,3.958 -3.504,0 -6.272,-1.46 -8.305,-4.38 -2.034,-2.92 -3.05,-6.976 -3.05,-12.166 0,-5.322 1.016,-9.453 3.05,-12.394 2.033,-2.942 4.801,-4.413 8.305,-4.413 2.942,0 5.776,1.298 8.501,3.893 v 4.543 h -3.05 c -1.254,-3.245 -3.093,-4.866 -5.515,-4.866 -1.99,0 -3.581,1.145 -4.77,3.438 -1.19,2.293 -1.785,5.538 -1.785,9.733 0,4.153 0.585,7.366 1.753,9.637 1.168,2.27 2.768,3.406 4.802,3.406 2.509,0 4.304,-1.622 5.385,-4.866 h 3.18 z m 25.63,-39.388 c -3.633,1.904 -6.813,4.326 -9.538,7.268 h -3.31 v -1.103 c 2.64,-2.207 4.845,-4.845 6.619,-7.917 h 6.229 z m 3.051,26.67 c 0,5.408 -1.017,9.539 -3.051,12.393 -2.032,2.856 -4.909,4.283 -8.63,4.283 -3.677,0 -6.543,-1.47 -8.597,-4.412 -2.056,-2.942 -3.083,-7.095 -3.083,-12.459 0,-5.148 1.049,-9.181 3.147,-12.101 2.099,-2.92 4.943,-4.381 8.533,-4.381 3.678,0 6.544,1.461 8.598,4.381 2.055,2.92 3.083,7.018 3.083,12.296 z m -4.737,0 c 0,-4.153 -0.628,-7.376 -1.882,-9.669 -1.254,-2.293 -2.942,-3.438 -5.062,-3.438 -2.119,0 -3.807,1.102 -5.061,3.309 -1.254,2.206 -1.882,5.277 -1.882,9.214 0,9.128 2.314,13.691 6.943,13.691 2.163,0 3.862,-1.136 5.094,-3.406 1.233,-2.271 1.85,-5.505 1.85,-9.701 z m 46.59,-15.768 -8.825,31.536 h -4.348 l -5.515,-24.269 h -0.844 l -5.385,24.269 h -4.283 l -8.76,-31.536 h 5.061 l 5.321,26.798 h 0.843 l 5.256,-26.798 h 4.672 l 5.451,26.798 h 0.779 l 5.386,-26.798 z m 32.25,-19.662 h -4.932 v -4.996 h 4.932 z m 9.344,51.198 h -24.398 v -3.309 l 18.428,-35.43 h -17.39 v -3.634 h 23.36 v 2.336 l -18.818,36.273 h 18.818 z m 26.086,-31.536 -9.15,30.368 c -1.255,4.11 -2.682,6.964 -4.282,8.565 -1.774,1.731 -4.326,2.596 -7.657,2.596 -0.13,0 -0.368,0 -0.714,0 -0.303,-0.043 -0.541,-0.065 -0.714,-0.065 v -4.023 c 0.173,0 0.389,0.021 0.649,0.064 0.302,0 0.519,0 0.649,0 2.206,0 3.893,-0.584 5.061,-1.752 1.038,-1.081 1.925,-3.049 2.661,-5.904 l -8.826,-29.849 h 4.933 l 5.969,25.761 h 0.649 l 5.71,-25.761 z m 24.008,28.486 c -2.466,2.639 -5.299,3.958 -8.501,3.958 -3.504,0 -6.272,-1.46 -8.305,-4.38 -2.034,-2.92 -3.05,-6.976 -3.05,-12.166 0,-5.322 1.016,-9.453 3.05,-12.394 2.033,-2.942 4.801,-4.413 8.305,-4.413 2.943,0 5.776,1.298 8.501,3.893 v 4.543 h -3.05 c -1.254,-3.245 -3.092,-4.866 -5.515,-4.866 -1.99,0 -3.58,1.145 -4.769,3.438 -1.19,2.293 -1.785,5.538 -1.785,9.733 0,4.153 0.584,7.366 1.752,9.637 1.168,2.27 2.769,3.406 4.802,3.406 2.509,0 4.304,-1.622 5.386,-4.866 h 3.179 z m 11.81,-36.143 h -4.932 v -4.997 h 4.932 z m -0.26,39.193 h -4.478 v -31.536 h 4.478 z m 29.59,0 h -4.542 v -2.661 l -0.584,-0.064 c -2.423,2.422 -5.062,3.633 -7.917,3.633 -2.682,0 -4.953,-0.876 -6.814,-2.628 -1.859,-1.752 -2.789,-3.882 -2.789,-6.392 0,-6.747 5.97,-10.619 17.909,-11.614 0.043,-0.476 0.065,-1.147 0.065,-2.012 0,-4.801 -2.055,-7.203 -6.164,-7.203 -3.202,0 -5.408,1.514 -6.619,4.543 h -3.245 v -4.932 c 3.245,-2.076 6.597,-3.115 10.058,-3.115 4.11,0 7.138,1.341 9.084,4.023 1.038,1.428 1.558,4.305 1.558,8.63 z m -4.607,-6.1 v -10.836 c -4.327,0.346 -7.636,1.254 -9.928,2.725 -2.293,1.471 -3.439,3.331 -3.439,5.58 0,1.644 0.573,2.996 1.719,4.056 1.147,1.06 2.693,1.589 4.64,1.589 2.552,0 4.888,-1.037 7.008,-3.114 z m 52.43,2.855 c -3.98,2.769 -7.917,4.153 -11.81,4.153 -4.715,0 -8.414,-1.936 -11.096,-5.807 -2.682,-3.872 -4.024,-9.376 -4.024,-16.514 0,-6.965 1.407,-12.362 4.218,-16.19 2.812,-3.829 6.641,-5.743 11.486,-5.743 3.374,0 7.116,1.341 11.226,4.023 v 5.905 h -3.245 c -1.86,-4.067 -4.586,-6.1 -8.176,-6.1 -6.965,0 -10.447,6.294 -10.447,18.883 0,5.71 0.919,10.069 2.757,13.075 1.839,3.006 4.424,4.51 7.755,4.51 3.936,0 6.64,-2.098 8.111,-6.294 h 3.245 z m 23.359,3.245 h -19.337 v -3.764 l 14.016,-24.009 h -13.951 v -3.763 h 18.493 v 4.218 l -14.015,23.554 h 14.794 z m 13.627,-31.082 -2.985,2.076 v 29.006 h -4.477 v -25.955 c -0.13,0.216 -0.346,0.54 -0.649,0.973 l -2.271,1.622 v -4.478 l 2.92,-2.011 v -14.341 h 4.477 v 11.356 c 0.13,-0.26 0.368,-0.606 0.714,-1.038 l 2.271,-1.752 z m 28.292,15.314 c 0,5.408 -1.017,9.539 -3.05,12.393 -2.033,2.856 -4.909,4.283 -8.63,4.283 -3.677,0 -6.543,-1.47 -8.598,-4.412 -2.055,-2.942 -3.082,-7.095 -3.082,-12.459 0,-5.148 1.049,-9.181 3.147,-12.101 2.098,-2.92 4.942,-4.381 8.533,-4.381 3.677,0 6.543,1.461 8.598,4.381 2.054,2.92 3.082,7.018 3.082,12.296 z m -4.737,0 c 0,-4.153 -0.627,-7.376 -1.882,-9.669 -1.254,-2.293 -2.942,-3.438 -5.061,-3.438 -2.119,0 -3.807,1.102 -5.062,3.309 -1.254,2.206 -1.881,5.277 -1.881,9.214 0,9.128 2.314,13.691 6.943,13.691 2.163,0 3.861,-1.136 5.094,-3.406 1.233,-2.271 1.849,-5.505 1.849,-9.701 z m 46.59,-15.768 -8.824,31.536 h -4.348 l -5.516,-24.269 h -0.843 l -5.386,24.269 h -4.283 l -8.76,-31.536 h 5.061 l 5.322,26.798 h 0.843 l 5.256,-26.798 h 4.672 l 5.451,26.798 h 0.779 l 5.385,-26.798 z m 10.643,-7.657 h -4.932 v -4.997 h 4.932 z m -0.26,39.193 h -4.478 v -31.536 h 4.478 z m 30.628,-14.275 h -18.559 v 0.778 c 0,3.374 0.725,6.002 2.174,7.884 1.45,1.882 3.386,2.822 5.808,2.822 3.288,0 5.71,-1.232 7.268,-3.698 h 3.179 v 3.503 c -3.028,2.597 -6.597,3.894 -10.706,3.894 -8.35,0 -12.524,-5.515 -12.524,-16.546 0,-5.322 1.038,-9.453 3.115,-12.394 2.076,-2.942 4.931,-4.413 8.565,-4.413 3.721,0 6.597,1.461 8.63,4.381 2.033,2.92 3.05,7.104 3.05,12.555 z m -4.737,-3.57 c -0.346,-7.354 -2.66,-11.03 -6.943,-11.03 -4.369,0 -6.662,3.676 -6.879,11.03 z m 33.224,-13.691 -11.032,14.016 10.253,17.52 h -4.932 l -5.71,-9.799 c -0.995,-1.686 -1.644,-3.46 -1.947,-5.321 l -0.519,-0.194 -2.985,4.607 v 10.707 h -4.413 v -44.19 h 4.413 v 19.467 c 0,2.163 -0.151,5.213 -0.454,9.15 l 0.908,0.259 11.226,-16.222 z m 25.436,31.536 h -4.542 v -2.661 l -0.584,-0.064 c -2.423,2.422 -5.062,3.633 -7.917,3.633 -2.682,0 -4.953,-0.876 -6.814,-2.628 -1.859,-1.752 -2.789,-3.882 -2.789,-6.392 0,-6.747 5.969,-10.619 17.909,-11.614 0.043,-0.476 0.065,-1.147 0.065,-2.012 0,-4.801 -2.055,-7.203 -6.164,-7.203 -3.202,0 -5.408,1.514 -6.619,4.543 h -3.245 v -4.932 c 3.245,-2.076 6.597,-3.115 10.058,-3.115 4.11,0 7.138,1.341 9.084,4.023 1.038,1.428 1.558,4.305 1.558,8.63 z m -4.607,-6.1 v -10.836 c -4.327,0.346 -7.636,1.254 -9.928,2.725 -2.293,1.471 -3.439,3.331 -3.439,5.58 0,1.644 0.573,2.996 1.719,4.056 1.147,1.06 2.693,1.589 4.64,1.589 2.552,0 4.888,-1.037 7.008,-3.114 z"
       id="path2995" />
    <path
       id="path2997"
       d="m 0,19.51473 h 144.8966 v 133.407 H 0 Z"
       style="fill:#c20622;fill-opacity:1;stroke:none" />
    <path
       id="path2999"
       d="m 58.8242,160.94473 c 10.5947,4.582 22.6349,2.575 33.7614,-0.34 9.026,-2.626 14.689,-5.31 21.176,-12.34 11.721,-12.233 18.353,-36.214 14.101,-49.016 -4.466,-13.712 -8.487,-21.122 -12.541,-37.077 -4.055,-16.235 -0.734,-26.895 -5.409,-40.396 -4.885,-13.43 -8.456,-13.206 -17.934,-18.843 -8.495,-5.011 -18.7829,-2.66 -28.6488,0.11 -18.1232,4.903 -19.4209,13.524 -33.0091,31.928 -8.0832,10.959 -18.2058,19.823 -20.253,33.911 -2.8637,20.324 3.1929,46.989 12.9239,63.762 9.9411,16.773 25.0968,23.439 35.8326,28.301 z"
       style="fill:#ffffff;stroke:none" />
    <path
       style="fill:none;stroke:#c20624;stroke-width:1.41732;stroke-miterlimit:4;stroke-dasharray:none;stroke-opacity:1"
       d="m 97.5706,67.07673 c 5.026,-4.432 6.045,-12.632 6.444,-18.307 0.797,-11.14 -3.863,-20.789 -12.717,-28.11 -10.5406,-8.785 -26.5094,-8.303 -35.9339,-0.071 -9.3554,8.021 -7.8254,23.355 -19.568,29.915 -3.2148,1.903 -5.4481,4.013 -5.4481,4.013 -2.9387,0.852 -5.4579,1.492 -10.884,11.25 -6.7477,12.144 -1.7728,30.757 1.8415,41.67 7.4389,21.826 29.3463,53.753 58.5016,39.702 9.6489,-4.661 9.3979,-15.097 4.9449,-25.586 0,0 7.197,13.631 11.423,19.709 3.17,4.611 8.403,-0.663 9.448,-2.348 5.637,-9.478 6.696,-7.381 7.94,-11.658 0.62,-2.735 0.807,-8.619 -1.926,-9.029 -2.102,-0.202 -6.71,3.808 -10.267,7.885 -1.942,-13.302 -0.92,-20.871 -7.482,-33.244 -1.06,-2.307 -5.06,-4.183 -7.991,-1.44 l -0.213,-0.629 c 5.868,-4.156 8.995,-10.822 15.922,-12.6 2.729,-0.851 1.874,-4.63 0.816,-6.447 -0.846,-1.468 -4.851,-4.675 -4.851,-4.675 z"
       id="path3003" />
    <path
       style="fill:none;stroke:#c20624;stroke-width:1.41732;stroke-miterlimit:4;stroke-dasharray:none;stroke-opacity:1"
       d="m 64.2673,116.09773 c -0.2938,3.113 -0.5087,5.188 -0.1584,10.928 -0.679,-12.606 1.8461,-29.917 8.1478,-30.572"
       id="path3005" />
    <path
       style="fill:none;stroke:#c20624;stroke-width:1.41732;stroke-miterlimit:4;stroke-dasharray:none;stroke-opacity:1"
       d="m 43.8909,79.05173 c 4.0775,3.836 14.1218,11.013 14.1218,11.013 3.9298,1.876 5.6931,5.021 9.829,5.846 2.9443,0.619 6.0955,0.396 9.0342,-0.455 2.5192,-0.641 6.9937,-2.759 9.0197,-4.238"
       id="path3007" />
    <path
       style="fill:none;stroke:#c20624;stroke-width:1.41732;stroke-miterlimit:4;stroke-dasharray:none;stroke-opacity:1"
       d="m 84.7516,121.48273 c -1.762,-2.726 -2.409,-7.136 -2.433,-13.23"
       id="path3009" />
    <path
       style="fill:none;stroke:#c20624;stroke-width:1.41732;stroke-miterlimit:4;stroke-dasharray:none;stroke-opacity:1"
       d="m 97.5706,67.07673 c -0.841,0.003 -3.579,-1.597 -5.255,-0.33 -3.564,2.045 -2.081,5.262 -5.224,7.725 -1.466,1.127 -18.9698,3.225 -14.9047,3.84 8e-4,0.21 -22.3136,-28.283 -34.9097,-25.082"
       id="path3011" />
  </g>
</svg>
